<svg width="30" height="30" viewBox="0 0 30 30" fill="none" xmlns="http://www.w3.org/2000/svg">
<g clip-path="url(#clip0_56_65)">
<path d="M9.99739 2C4.47467 2 -0.00131408 6.15625 -0.00131408 11.2857C-0.00131408 13.4107 0.775929 15.3571 2.06482 16.9241C1.48287 18.683 0.272088 20.1741 0.252559 20.192C-0.00521982 20.5045 -0.0755232 20.9598 0.0728951 21.3527C0.221313 21.7455 0.561113 22 0.936064 22C3.3381 22 5.23238 20.8527 6.36895 19.933C7.49771 20.3393 8.71631 20.5714 9.99739 20.5714C15.5201 20.5714 19.9961 16.4152 19.9961 11.2857C19.9961 6.15625 15.5201 2 9.99739 2ZM9.99739 18.4286C8.95456 18.4286 7.92344 18.2455 6.93529 17.8884L6.04868 17.567L5.28706 18.183C4.72854 18.6339 3.96302 19.1384 3.04126 19.4777C3.32638 18.9375 3.60369 18.3304 3.8185 17.683L4.23251 16.4286L3.42793 15.4554C2.72099 14.5938 1.87344 13.1696 1.87344 11.2857C1.87344 7.34821 5.5175 4.14286 9.99739 4.14286C14.4773 4.14286 18.1213 7.34821 18.1213 11.2857C18.1213 15.2232 14.4773 18.4286 9.99739 18.4286Z" fill="black"/>
</g>
<defs>
<clipPath id="clip0_56_65">
<rect width="30" height="30" fill="white"/>
</clipPath>
</defs>
</svg>
