<svg width="20" height="20" viewBox="0 0 20 20" fill="none" xmlns="http://www.w3.org/2000/svg">
<path d="M9.97147 20C9.70768 20.0008 9.44636 19.94 9.20256 19.8212C8.95876 19.7024 8.73728 19.528 8.55086 19.3079L1.68125 11.2074C1.13857 10.5605 0.710492 9.79276 0.42194 8.94887C0.133387 8.10498 -0.00986538 7.20182 0.000527577 6.292C0.0057563 5.45823 0.150431 4.63386 0.426265 3.86612C0.702099 3.09838 1.10367 2.40236 1.60798 1.81791C2.11229 1.23346 2.70943 0.772079 3.3652 0.460187C4.02096 0.148295 4.72246 -0.0079771 5.42952 0.000321586C6.14924 -0.0082271 6.86309 0.153741 7.52872 0.47662C8.19436 0.799499 8.79823 1.27671 9.30452 1.87996L9.97147 2.66642L10.5184 2.02152C11.4627 0.878457 12.7264 0.177678 14.0753 0.0489833C15.4242 -0.0797117 16.7669 0.372398 17.8549 1.32157C18.4741 1.88393 18.9847 2.59542 19.3526 3.40865C19.7204 4.22188 19.9371 5.1182 19.9882 6.03791C20.0393 6.95762 19.9237 7.87962 19.649 8.74251C19.3743 9.60539 18.9468 10.3894 18.3951 11.0422L11.3921 19.3079C11.2057 19.528 10.9842 19.7024 10.7404 19.8212C10.4966 19.94 10.2353 20.0008 9.97147 20ZM5.40284 1.56538C4.34274 1.5641 3.3238 2.04922 2.56163 2.91809C2.17306 3.35893 1.86405 3.88783 1.65317 4.47302C1.44228 5.05821 1.33387 5.68762 1.33443 6.32346C1.32859 7.02287 1.44054 7.71669 1.66379 8.3647C1.88704 9.01271 2.21715 9.60202 2.63499 10.0985L9.50461 18.199C9.56661 18.2727 9.64037 18.3312 9.72165 18.3711C9.80292 18.4111 9.8901 18.4316 9.97814 18.4316C10.0662 18.4316 10.1534 18.4111 10.2346 18.3711C10.3159 18.3312 10.3897 18.2727 10.4517 18.199L17.4614 9.92544C17.8728 9.43 18.1907 8.83751 18.3942 8.1869C18.5976 7.53628 18.682 6.84226 18.6419 6.15044C18.6062 5.45152 18.443 4.76993 18.1633 4.15232C17.8835 3.5347 17.4939 2.99565 17.0212 2.57204C16.1916 1.85078 15.1679 1.50974 14.1409 1.61247C13.1138 1.7152 12.1535 2.25469 11.4388 3.13043L10.445 4.33371C10.383 4.40743 10.3092 4.46594 10.228 4.50586C10.1467 4.54579 10.0595 4.56635 9.97147 4.56635C9.88343 4.56635 9.79625 4.54579 9.71498 4.50586C9.6337 4.46594 9.55994 4.40743 9.49794 4.33371L8.36412 2.99673C7.58318 2.08387 6.52914 1.56976 5.42952 1.56538H5.40284Z" fill="black"/>
</svg>
