<svg width="25" height="25" viewBox="0 0 25 25" fill="none" xmlns="http://www.w3.org/2000/svg">
<path d="M14.5833 1.66675H2.08333C0.932617 1.66675 0 2.7326 0 4.0477V15.9525C0 17.2676 0.932617 18.3334 2.08333 18.3334H14.5833C15.734 18.3334 16.6667 17.2676 16.6667 15.9525V4.0477C16.6667 2.7326 15.7324 1.66675 14.5833 1.66675ZM9.72331 4.0477V6.42865H6.94336V4.0477H9.72331ZM9.72331 8.80961V11.1906H6.94336V8.80961H9.72331ZM2.08333 4.0477H4.861V6.42865H2.08333V4.0477ZM2.08333 8.80961H4.861V11.1906H2.08333V8.80961ZM2.08333 15.9525V13.5715H4.861V15.9525H2.08333ZM6.94336 15.9525V13.5715H9.72103V15.9525H6.94336ZM14.5833 15.9525H11.8057V13.5715H14.5833V15.9525ZM14.5833 11.1906H11.8057V8.80961H14.5833V11.1906ZM14.5833 6.42865H11.8057V4.0477H14.5833V6.42865Z" fill="black"/>
</svg>
