<svg width="219" height="23" viewBox="0 0 219 23" fill="none" xmlns="http://www.w3.org/2000/svg">
<path d="M3.6 1.36C4.34667 1.36 5.01867 1.36 5.616 1.36C6.21333 1.33867 6.8 1.31733 7.376 1.296C7.97333 1.27467 8.64533 1.264 9.392 1.264C10.928 1.264 12.3787 1.52 13.744 2.032C15.1093 2.52267 16.304 3.23733 17.328 4.176C18.3733 5.11467 19.1947 6.23467 19.792 7.536C20.3893 8.816 20.688 10.2453 20.688 11.824C20.688 13.7867 20.3467 15.4293 19.664 16.752C18.9813 18.0747 18.096 19.1307 17.008 19.92C15.92 20.688 14.7573 21.2427 13.52 21.584C12.2827 21.904 11.0987 22.064 9.968 22.064C9.02933 22.064 8.24 22.0533 7.6 22.032C6.98133 22.032 6.36267 22.0213 5.744 22C5.14667 22 4.432 22 3.6 22C3.23733 22 2.84267 22 2.416 22C1.98933 22.0213 1.62667 22.0427 1.328 22.064C1.02933 22.0853 0.88 22.096 0.88 22.096L0.848 22C0.976 21.1253 1.072 20.144 1.136 19.056C1.2 17.9467 1.232 16.7947 1.232 15.6V7.76C1.232 5.30667 1.104 3.17333 0.848 1.36L0.912 1.264C0.912 1.264 1.06133 1.27467 1.36 1.296C1.65867 1.31733 2.01067 1.33867 2.416 1.36C2.84267 1.36 3.23733 1.36 3.6 1.36ZM5.84 18.768C5.84 19.28 6.05333 19.6747 6.48 19.952C6.928 20.2293 7.76 20.368 8.976 20.368C10.4907 20.368 11.728 20.176 12.688 19.792C13.648 19.3867 14.3627 18.6293 14.832 17.52C15.3013 16.3893 15.536 14.7467 15.536 12.592C15.536 11.3547 15.472 10.16 15.344 9.008C15.216 7.856 14.9173 6.832 14.448 5.936C13.9787 5.01867 13.2427 4.29333 12.24 3.76C11.2587 3.22667 9.904 2.96 8.176 2.96C6.61867 2.96 5.84 3.49333 5.84 4.56V18.768ZM30.0238 15.6C30.0238 15.728 30.0238 15.9733 30.0238 16.336C30.0451 16.6987 30.0558 17.104 30.0558 17.552C30.0771 18 30.0984 18.416 30.1198 18.8C30.1624 19.184 30.2158 19.472 30.2798 19.664C31.3464 19.664 32.4344 19.632 33.5438 19.568C34.6531 19.4827 35.6771 19.3973 36.6158 19.312C37.5544 19.2267 38.3118 19.152 38.8878 19.088C39.4638 19.0027 39.7518 18.96 39.7518 18.96L39.8158 19.088C39.8158 19.1733 39.8051 19.344 39.7838 19.6C39.7838 19.8347 39.7731 20.08 39.7518 20.336C39.7518 20.5707 39.7518 20.7413 39.7518 20.848C39.7518 20.9973 39.7518 21.1787 39.7518 21.392C39.7731 21.584 39.7944 21.7867 39.8158 22L39.7518 22.096C39.4958 22.0533 39.1971 22.0213 38.8558 22C38.5144 22 38.1731 22 37.8318 22H27.7838C27.4211 22 27.0264 22 26.5998 22C26.1731 22.0213 25.8104 22.0427 25.5118 22.064C25.2131 22.0853 25.0638 22.096 25.0638 22.096L25.0318 22C25.1598 21.1253 25.2558 20.144 25.3198 19.056C25.3838 17.9467 25.4158 16.7947 25.4158 15.6V7.76C25.4158 5.30667 25.2878 3.17333 25.0318 1.36L25.0958 1.264C25.0958 1.264 25.2451 1.27467 25.5438 1.296C25.8424 1.31733 26.1944 1.33867 26.5998 1.36C27.0264 1.36 27.4211 1.36 27.7838 1.36H37.5118C37.8531 1.36 38.1944 1.34933 38.5358 1.328C38.8771 1.30667 39.1758 1.28533 39.4318 1.264L39.4958 1.36C39.4531 1.85067 39.4318 2.224 39.4318 2.48C39.4318 2.62933 39.4318 2.85333 39.4318 3.152C39.4531 3.45067 39.4744 3.664 39.4958 3.792L39.4318 3.92C39.4318 3.92 39.1544 3.89867 38.5998 3.856C38.0664 3.81333 37.3518 3.77067 36.4558 3.728C35.5598 3.68533 34.5678 3.64267 33.4798 3.6C32.4131 3.55733 31.3464 3.536 30.2798 3.536C30.2158 3.728 30.1624 4.02667 30.1198 4.432C30.0984 4.83733 30.0771 5.27467 30.0558 5.744C30.0558 6.192 30.0451 6.608 30.0238 6.992C30.0238 7.376 30.0238 7.632 30.0238 7.76V10.096C31.2824 10.096 32.3598 10.0853 33.2558 10.064C34.1518 10.0213 34.9411 9.97867 35.6238 9.936C36.3278 9.872 36.9891 9.81867 37.6078 9.776L37.7038 9.872C37.6824 10.0213 37.6611 10.224 37.6398 10.48C37.6184 10.7147 37.6078 10.9067 37.6078 11.056C37.6078 11.2053 37.6184 11.408 37.6398 11.664C37.6611 11.92 37.6824 12.1227 37.7038 12.272L37.6078 12.368C36.8824 12.2827 36.0184 12.2187 35.0158 12.176C34.0344 12.1333 33.0851 12.1013 32.1678 12.08C31.2504 12.0587 30.5358 12.048 30.0238 12.048V15.6ZM52.9918 16.272C53.5464 15.0133 54.1118 13.7013 54.6878 12.336C55.2851 10.9707 55.8504 9.616 56.3838 8.272C56.9384 6.928 57.4291 5.65867 57.8558 4.464C58.2824 3.26933 58.6238 2.20267 58.8798 1.264C59.0718 1.30667 59.3811 1.33867 59.8078 1.36C60.2558 1.36 60.5651 1.36 60.7358 1.36C60.9064 1.36 61.1518 1.36 61.4718 1.36C61.8131 1.33867 62.0798 1.30667 62.2718 1.264C60.6504 4.80533 59.0504 8.29333 57.4718 11.728C55.9144 15.1627 54.3678 18.6613 52.8318 22.224H50.6238C50.0264 20.816 49.3971 19.3013 48.7358 17.68C48.0744 16.0587 47.4024 14.416 46.7198 12.752C46.0584 11.088 45.4078 9.50933 44.7678 8.016C44.1491 6.50133 43.5838 5.15733 43.0718 3.984C42.5811 2.81067 42.1758 1.904 41.8558 1.264C42.0478 1.28533 42.3678 1.30667 42.8158 1.328C43.2638 1.34933 43.7118 1.36 44.1598 1.36C44.6078 1.36 44.9171 1.36 45.0878 1.36C45.3651 1.36 45.7704 1.36 46.3038 1.36C46.8371 1.33867 47.2424 1.30667 47.5198 1.264C47.6691 1.79733 48.1491 3.33333 48.9598 5.872C49.7918 8.41067 51.1358 11.8773 52.9918 16.272ZM74.998 0.943998C76.2993 0.943998 77.494 1.072 78.582 1.328C79.67 1.56267 80.5447 1.79733 81.206 2.032C81.8673 2.26667 82.198 2.384 82.198 2.384L82.262 2.48C82.07 3.26933 81.9313 3.96267 81.846 4.56C81.7607 5.136 81.686 5.82933 81.622 6.64L80.662 6.672C80.0007 5.34933 79.2113 4.35733 78.294 3.696C77.398 3.03467 76.2247 2.704 74.774 2.704C74.1127 2.704 73.4193 2.864 72.694 3.184C71.99 3.48267 71.3287 3.97333 70.71 4.656C70.0913 5.33867 69.59 6.24533 69.206 7.376C68.822 8.48533 68.63 9.85067 68.63 11.472C68.63 13.2853 68.8967 14.864 69.43 16.208C69.9633 17.5307 70.6887 18.5653 71.606 19.312C72.5447 20.0373 73.59 20.4 74.742 20.4C75.7447 20.4 76.63 20.3253 77.398 20.176C78.166 20.0053 78.902 19.7173 79.606 19.312C80.3313 18.9067 81.0887 18.32 81.878 17.552L82.646 18.64C81.302 20.0267 79.862 20.9867 78.326 21.52C76.8113 22.0533 75.3393 22.32 73.91 22.32C72.5447 22.32 71.35 22.1707 70.326 21.872C69.302 21.5733 68.31 21.104 67.35 20.464C66.0913 19.6107 65.1207 18.4267 64.438 16.912C63.7553 15.376 63.414 13.7653 63.414 12.08C63.414 10.3307 63.7553 8.67733 64.438 7.12C65.142 5.56267 66.1233 4.29333 67.382 3.312C68.3847 2.52267 69.5367 1.936 70.838 1.552C72.1607 1.14666 73.5473 0.943998 74.998 0.943998ZM108.248 11.472C108.248 13.6053 107.789 15.4933 106.872 17.136C105.976 18.7573 104.685 20.0267 103 20.944C101.336 21.8613 99.3624 22.32 97.0798 22.32C94.9678 22.32 93.0798 21.8827 91.4158 21.008C89.7518 20.1333 88.4291 18.928 87.4478 17.392C86.4878 15.856 86.0078 14.0853 86.0078 12.08C86.0078 10.5013 86.2744 9.04 86.8078 7.696C87.3411 6.352 88.0984 5.17867 89.0798 4.176C90.0611 3.152 91.2238 2.36267 92.5677 1.808C93.9331 1.232 95.4264 0.943998 97.0478 0.943998C99.3304 0.943998 101.304 1.38133 102.968 2.256C104.653 3.13067 105.954 4.35733 106.872 5.936C107.789 7.51467 108.248 9.36 108.248 11.472ZM96.6318 2.704C95.6078 2.704 94.6798 2.97067 93.8478 3.504C93.0371 4.03733 92.3864 4.95467 91.8958 6.256C91.4051 7.536 91.1598 9.296 91.1598 11.536C91.1598 14.608 91.7678 16.88 92.9838 18.352C94.2211 19.824 95.7998 20.56 97.7198 20.56C99.5544 20.56 100.909 19.8667 101.784 18.48C102.658 17.072 103.096 14.9387 103.096 12.08C103.096 8.752 102.584 6.36267 101.56 4.912C100.536 3.44 98.8931 2.704 96.6318 2.704ZM113.138 7.76C113.181 6.56533 113.17 5.43467 113.106 4.368C113.042 3.28 112.946 2.27733 112.818 1.36L112.882 1.264C112.882 1.264 113.106 1.28533 113.554 1.328C114.024 1.34933 114.44 1.36 114.802 1.36C115.101 1.36 115.432 1.34933 115.794 1.328C116.178 1.28533 116.37 1.264 116.37 1.264C117.565 2.84267 118.856 4.464 120.242 6.128C121.629 7.792 123.037 9.43467 124.466 11.056C125.896 12.6773 127.272 14.192 128.594 15.6H128.69V7.76C128.648 6.56533 128.594 5.43467 128.53 4.368C128.488 3.28 128.402 2.27733 128.274 1.36L128.338 1.264C128.338 1.264 128.509 1.28533 128.85 1.328C129.192 1.34933 129.554 1.36 129.938 1.36C130.301 1.36 130.653 1.34933 130.994 1.328C131.336 1.28533 131.506 1.264 131.506 1.264L131.57 1.36C131.442 2.21333 131.357 3.19467 131.314 4.304C131.272 5.41333 131.25 6.56533 131.25 7.76L131.058 22.096C130.546 22.032 130.034 22 129.522 22C129.266 22 128.968 22.0107 128.626 22.032C128.285 22.0533 127.986 22.0747 127.73 22.096C125.896 19.728 123.922 17.296 121.81 14.8C119.72 12.304 117.629 9.85067 115.538 7.44H115.346L115.218 15.6C115.197 16.8373 115.186 17.9893 115.186 19.056C115.208 20.1013 115.282 21.0827 115.41 22L115.346 22.096C115.346 22.096 115.208 22.0747 114.93 22.032C114.653 22.0107 114.322 22 113.938 22C113.576 22 113.245 22.0107 112.946 22.032C112.648 22.0747 112.498 22.096 112.498 22.096L112.466 22C112.594 21.1467 112.701 20.176 112.786 19.088C112.872 18 112.936 16.8373 112.978 15.6L113.138 7.76ZM137.076 7.76C137.118 6.56533 137.108 5.43467 137.044 4.368C136.98 3.28 136.884 2.27733 136.756 1.36L136.82 1.264C136.82 1.264 137.044 1.28533 137.492 1.328C137.961 1.34933 138.377 1.36 138.74 1.36C139.038 1.36 139.369 1.34933 139.732 1.328C140.116 1.28533 140.308 1.264 140.308 1.264C141.502 2.84267 142.793 4.464 144.18 6.128C145.566 7.792 146.974 9.43467 148.404 11.056C149.833 12.6773 151.209 14.192 152.532 15.6H152.628V7.76C152.585 6.56533 152.532 5.43467 152.468 4.368C152.425 3.28 152.34 2.27733 152.212 1.36L152.276 1.264C152.276 1.264 152.446 1.28533 152.788 1.328C153.129 1.34933 153.492 1.36 153.876 1.36C154.238 1.36 154.59 1.34933 154.932 1.328C155.273 1.28533 155.444 1.264 155.444 1.264L155.508 1.36C155.38 2.21333 155.294 3.19467 155.252 4.304C155.209 5.41333 155.188 6.56533 155.188 7.76L154.996 22.096C154.484 22.032 153.972 22 153.46 22C153.204 22 152.905 22.0107 152.564 22.032C152.222 22.0533 151.924 22.0747 151.668 22.096C149.833 19.728 147.86 17.296 145.748 14.8C143.657 12.304 141.566 9.85067 139.476 7.44H139.284L139.156 15.6C139.134 16.8373 139.124 17.9893 139.124 19.056C139.145 20.1013 139.22 21.0827 139.348 22L139.284 22.096C139.284 22.096 139.145 22.0747 138.868 22.032C138.59 22.0107 138.26 22 137.876 22C137.513 22 137.182 22.0107 136.884 22.032C136.585 22.0747 136.436 22.096 136.436 22.096L136.404 22C136.532 21.1467 136.638 20.176 136.724 19.088C136.809 18 136.873 16.8373 136.916 15.6L137.076 7.76ZM165.461 15.6C165.461 15.728 165.461 15.9733 165.461 16.336C165.483 16.6987 165.493 17.104 165.493 17.552C165.515 18 165.536 18.416 165.557 18.8C165.6 19.184 165.653 19.472 165.717 19.664C166.784 19.664 167.872 19.632 168.981 19.568C170.091 19.4827 171.115 19.3973 172.053 19.312C172.992 19.2267 173.749 19.152 174.325 19.088C174.901 19.0027 175.189 18.96 175.189 18.96L175.253 19.088C175.253 19.1733 175.243 19.344 175.221 19.6C175.221 19.8347 175.211 20.08 175.189 20.336C175.189 20.5707 175.189 20.7413 175.189 20.848C175.189 20.9973 175.189 21.1787 175.189 21.392C175.211 21.584 175.232 21.7867 175.253 22L175.189 22.096C174.933 22.0533 174.635 22.0213 174.293 22C173.952 22 173.611 22 173.269 22H163.221C162.859 22 162.464 22 162.037 22C161.611 22.0213 161.248 22.0427 160.949 22.064C160.651 22.0853 160.501 22.096 160.501 22.096L160.469 22C160.597 21.1253 160.693 20.144 160.757 19.056C160.821 17.9467 160.853 16.7947 160.853 15.6V7.76C160.853 5.30667 160.725 3.17333 160.469 1.36L160.533 1.264C160.533 1.264 160.683 1.27467 160.981 1.296C161.28 1.31733 161.632 1.33867 162.037 1.36C162.464 1.36 162.859 1.36 163.221 1.36H172.949C173.291 1.36 173.632 1.34933 173.973 1.328C174.315 1.30667 174.613 1.28533 174.869 1.264L174.933 1.36C174.891 1.85067 174.869 2.224 174.869 2.48C174.869 2.62933 174.869 2.85333 174.869 3.152C174.891 3.45067 174.912 3.664 174.933 3.792L174.869 3.92C174.869 3.92 174.592 3.89867 174.037 3.856C173.504 3.81333 172.789 3.77067 171.893 3.728C170.997 3.68533 170.005 3.64267 168.917 3.6C167.851 3.55733 166.784 3.536 165.717 3.536C165.653 3.728 165.6 4.02667 165.557 4.432C165.536 4.83733 165.515 5.27467 165.493 5.744C165.493 6.192 165.483 6.608 165.461 6.992C165.461 7.376 165.461 7.632 165.461 7.76V10.096C166.72 10.096 167.797 10.0853 168.693 10.064C169.589 10.0213 170.379 9.97867 171.061 9.936C171.765 9.872 172.427 9.81867 173.045 9.776L173.141 9.872C173.12 10.0213 173.099 10.224 173.077 10.48C173.056 10.7147 173.045 10.9067 173.045 11.056C173.045 11.2053 173.056 11.408 173.077 11.664C173.099 11.92 173.12 12.1227 173.141 12.272L173.045 12.368C172.32 12.2827 171.456 12.2187 170.453 12.176C169.472 12.1333 168.523 12.1013 167.605 12.08C166.688 12.0587 165.973 12.048 165.461 12.048V15.6ZM190.029 0.943998C191.331 0.943998 192.525 1.072 193.613 1.328C194.701 1.56267 195.576 1.79733 196.237 2.032C196.899 2.26667 197.229 2.384 197.229 2.384L197.293 2.48C197.101 3.26933 196.963 3.96267 196.877 4.56C196.792 5.136 196.717 5.82933 196.653 6.64L195.693 6.672C195.032 5.34933 194.243 4.35733 193.325 3.696C192.429 3.03467 191.256 2.704 189.805 2.704C189.144 2.704 188.451 2.864 187.725 3.184C187.021 3.48267 186.36 3.97333 185.741 4.656C185.123 5.33867 184.621 6.24533 184.237 7.376C183.853 8.48533 183.661 9.85067 183.661 11.472C183.661 13.2853 183.928 14.864 184.461 16.208C184.995 17.5307 185.72 18.5653 186.637 19.312C187.576 20.0373 188.621 20.4 189.773 20.4C190.776 20.4 191.661 20.3253 192.429 20.176C193.197 20.0053 193.933 19.7173 194.637 19.312C195.363 18.9067 196.12 18.32 196.909 17.552L197.677 18.64C196.333 20.0267 194.893 20.9867 193.357 21.52C191.843 22.0533 190.371 22.32 188.941 22.32C187.576 22.32 186.381 22.1707 185.357 21.872C184.333 21.5733 183.341 21.104 182.381 20.464C181.123 19.6107 180.152 18.4267 179.469 16.912C178.787 15.376 178.445 13.7653 178.445 12.08C178.445 10.3307 178.787 8.67733 179.469 7.12C180.173 5.56267 181.155 4.29333 182.413 3.312C183.416 2.52267 184.568 1.936 185.869 1.552C187.192 1.14666 188.579 0.943998 190.029 0.943998ZM206.703 8.048C206.703 7.92 206.692 7.67467 206.671 7.312C206.671 6.928 206.66 6.512 206.639 6.064C206.639 5.59467 206.618 5.15733 206.575 4.752C206.554 4.34667 206.511 4.048 206.447 3.856C204.314 3.856 202.692 3.97333 201.583 4.208C200.474 4.44267 199.919 4.56 199.919 4.56L199.855 4.432C199.876 4.26133 199.887 3.99467 199.887 3.632C199.908 3.248 199.908 2.85333 199.887 2.448C199.887 2.02133 199.876 1.65867 199.855 1.36L199.919 1.264C200.175 1.28533 200.474 1.30667 200.815 1.328C201.156 1.34933 201.498 1.36 201.839 1.36H216.175C216.516 1.36 216.858 1.34933 217.199 1.328C217.54 1.30667 217.839 1.28533 218.095 1.264L218.159 1.36C218.138 1.65867 218.116 2.02133 218.095 2.448C218.095 2.85333 218.095 3.248 218.095 3.632C218.116 3.99467 218.138 4.26133 218.159 4.432L218.095 4.56C218.095 4.56 217.54 4.44267 216.431 4.208C215.343 3.97333 213.722 3.856 211.567 3.856C211.503 4.048 211.45 4.34667 211.407 4.752C211.386 5.15733 211.364 5.59467 211.343 6.064C211.343 6.512 211.332 6.928 211.311 7.312C211.311 7.67467 211.311 7.92 211.311 8.048V15.6C211.311 16.7947 211.332 17.936 211.375 19.024C211.418 20.0907 211.503 21.0827 211.631 22L211.567 22.096C211.567 22.096 211.428 22.0853 211.151 22.064C210.874 22.0427 210.532 22.0213 210.127 22C209.743 22 209.37 22 209.007 22C208.644 22 208.26 22 207.855 22C207.45 22.0213 207.108 22.0427 206.831 22.064C206.554 22.0853 206.415 22.096 206.415 22.096L206.383 22C206.511 21.1253 206.596 20.144 206.639 19.056C206.682 17.9467 206.703 16.7947 206.703 15.6V8.048Z" fill="black"/>
</svg>
