<svg width="76" height="15" viewBox="0 0 76 15" fill="none" xmlns="http://www.w3.org/2000/svg">
<path d="M4.62 1.1C5.03333 1.1 5.4 1.1 5.72 1.1C6.05333 1.08667 6.38 1.07333 6.7 1.06C7.03333 1.04667 7.40667 1.04 7.82 1.04C8.78 1.04 9.62667 1.22 10.36 1.58C11.1067 1.92667 11.7133 2.41333 12.18 3.04C12.66 3.66667 12.98 4.39333 13.14 5.22C13.3 6.03333 13.2867 6.90667 13.1 7.84C12.8333 9.06667 12.42 10.0867 11.86 10.9C11.3 11.7 10.6533 12.3333 9.92 12.8C9.18667 13.2533 8.42667 13.5733 7.64 13.76C6.85333 13.9467 6.11333 14.04 5.42 14.04C4.9 14.04 4.48667 14.0333 4.18 14.02C3.87333 14.02 3.60667 14.02 3.38 14.02C3.16667 14.02 2.94667 14.0133 2.72 14C2.50667 14 2.22667 14 1.88 14C1.53333 14 1.26667 14.0067 1.08 14.02C0.906667 14.0467 0.82 14.06 0.82 14.06V14C1.02 13.4533 1.20667 12.84 1.38 12.16C1.55333 11.4667 1.72 10.7467 1.88 10L2.92 5.1C3.08 4.35333 3.21333 3.64667 3.32 2.98C3.44 2.3 3.52 1.67333 3.56 1.1L3.62 1.04C3.62 1.04 3.7 1.05333 3.86 1.08C4.03333 1.09333 4.28667 1.1 4.62 1.1ZM3.08 12.36C3.04 12.5733 3.04 12.74 3.08 12.86C3.13333 12.9667 3.3 13.0467 3.58 13.1C3.86 13.14 4.32667 13.16 4.98 13.16C5.68667 13.16 6.35333 13.1 6.98 12.98C7.60667 12.8467 8.17333 12.6067 8.68 12.26C9.2 11.9133 9.64667 11.4267 10.02 10.8C10.4067 10.16 10.7067 9.33333 10.92 8.32C11.0933 7.54667 11.1733 6.78667 11.16 6.04C11.16 5.28 11.0267 4.59333 10.76 3.98C10.4933 3.35333 10.0467 2.85333 9.42 2.48C8.79333 2.10667 7.94 1.92 6.86 1.92C6.38 1.92 5.98667 1.96667 5.68 2.06C5.38667 2.15333 5.20667 2.37333 5.14 2.72L3.08 12.36ZM17.1328 10C17.1061 10.08 17.0661 10.2533 17.0128 10.52C16.9595 10.7867 16.9061 11.0867 16.8528 11.42C16.7995 11.74 16.7528 12.04 16.7128 12.32C16.6728 12.6 16.6595 12.8 16.6728 12.92C17.3395 12.92 18.0061 12.9067 18.6728 12.88C19.3395 12.8533 19.9528 12.8267 20.5128 12.8C21.0728 12.7733 21.5195 12.7467 21.8528 12.72C22.1861 12.6933 22.3528 12.68 22.3528 12.68L22.3728 12.76C22.3461 12.84 22.3128 12.9467 22.2728 13.08C22.2461 13.2 22.2195 13.3133 22.1928 13.42C22.1795 13.5133 22.1661 13.6 22.1528 13.68C22.1528 13.7467 22.1395 13.8533 22.1128 14L22.0528 14.06C21.9061 14.0333 21.7261 14.0133 21.5128 14C21.2995 14 21.0861 14 20.8728 14H15.4128C15.0661 14 14.7995 14.0067 14.6128 14.02C14.4395 14.0467 14.3528 14.06 14.3528 14.06V14C14.5528 13.4533 14.7395 12.84 14.9128 12.16C15.0861 11.4667 15.2528 10.7467 15.4128 10L16.4528 5.1C16.6128 4.35333 16.7461 3.64667 16.8528 2.98C16.9728 2.3 17.0528 1.67333 17.0928 1.1L17.1528 1.04C17.1528 1.04 17.2328 1.05333 17.3928 1.08C17.5661 1.09333 17.8195 1.1 18.1528 1.1H23.4128C23.6261 1.1 23.8395 1.09333 24.0528 1.08C24.2661 1.06667 24.4595 1.05333 24.6328 1.04L24.6528 1.1C24.6128 1.23333 24.5795 1.35333 24.5528 1.46C24.5261 1.55333 24.5061 1.64 24.4928 1.72C24.4661 1.81333 24.4461 1.90667 24.4328 2C24.4328 2.08 24.4261 2.16 24.4128 2.24L24.3528 2.32C24.3528 2.32 24.1995 2.30667 23.8928 2.28C23.5861 2.25333 23.1728 2.22667 22.6528 2.2C22.1461 2.17333 21.5728 2.14667 20.9328 2.12C20.2928 2.09333 19.6395 2.08 18.9728 2.08C18.9061 2.2 18.8328 2.40667 18.7528 2.7C18.6728 2.99333 18.5861 3.31333 18.4928 3.66C18.4128 3.99333 18.3395 4.3 18.2728 4.58C18.2195 4.84667 18.1861 5.02 18.1728 5.1L17.8128 6.74C18.5995 6.74 19.2528 6.73333 19.7728 6.72C20.2928 6.69333 20.7461 6.66667 21.1328 6.64C21.5195 6.6 21.9128 6.56667 22.3128 6.54L22.3728 6.6C22.2928 6.77333 22.2328 6.96 22.1928 7.16C22.1528 7.36 22.1328 7.54667 22.1328 7.72L22.0528 7.78C21.5995 7.72667 21.0928 7.68667 20.5328 7.66C19.9728 7.63333 19.4261 7.61333 18.8928 7.6C18.3728 7.58667 17.9528 7.58 17.6328 7.58L17.1328 10ZM30.122 11.36C30.6554 10.52 31.1887 9.64 31.722 8.72C32.2687 7.78667 32.7954 6.85333 33.302 5.92C33.8087 4.98667 34.2754 4.1 34.702 3.26C35.1287 2.42 35.4954 1.68 35.802 1.04C35.9087 1.06667 36.0687 1.08667 36.282 1.1C36.5087 1.1 36.6754 1.1 36.782 1.1C36.8887 1.1 37.002 1.1 37.122 1.1C37.242 1.08667 37.3687 1.06667 37.502 1.04C36.5154 2.50667 35.582 3.97333 34.702 5.44C33.8354 6.89333 32.9754 8.34667 32.122 9.8C31.2687 11.2533 30.362 12.72 29.402 14.2H28.842C28.6554 13.32 28.462 12.3733 28.262 11.36C28.062 10.3333 27.862 9.3 27.662 8.26C27.462 7.22 27.2687 6.22667 27.082 5.28C26.8954 4.33333 26.722 3.49333 26.562 2.76C26.402 2.01333 26.2687 1.44 26.162 1.04C26.322 1.06667 26.5154 1.08667 26.742 1.1C26.9687 1.1 27.1687 1.1 27.342 1.1C27.5154 1.1 27.6954 1.1 27.882 1.1C28.082 1.08667 28.2754 1.06667 28.462 1.04C28.4887 1.38667 28.5954 2.43333 28.782 4.18C28.982 5.92667 29.4154 8.32 30.082 11.36H30.122ZM44.3102 0.839999C45.1235 0.839999 45.8235 0.919999 46.4102 1.08C47.0102 1.22667 47.4702 1.37333 47.7902 1.52C48.1102 1.66667 48.2702 1.74 48.2702 1.74L48.3102 1.8C48.1635 2.13333 48.0435 2.4 47.9502 2.6C47.8568 2.8 47.7702 3 47.6902 3.2C47.6102 3.4 47.5235 3.67333 47.4302 4.02L47.1902 4.04C46.9502 3.21333 46.5502 2.63333 45.9902 2.3C45.4435 1.95333 44.7235 1.78 43.8302 1.78C43.4168 1.78 42.9568 1.88 42.4502 2.08C41.9435 2.28 41.4368 2.6 40.9302 3.04C40.4368 3.46667 39.9835 4.03333 39.5702 4.74C39.1568 5.44667 38.8435 6.30667 38.6302 7.32C38.4702 8.05333 38.3968 8.76667 38.4102 9.46C38.4368 10.1533 38.5702 10.78 38.8102 11.34C39.0502 11.9 39.4102 12.3467 39.8902 12.68C40.3835 13.0133 41.0168 13.18 41.7902 13.18C42.4035 13.18 42.9502 13.1267 43.4302 13.02C43.9235 12.9 44.4035 12.7 44.8702 12.42C45.3368 12.1267 45.8635 11.72 46.4502 11.2L46.8902 11.58C46.0102 12.4733 45.1168 13.1333 44.2102 13.56C43.3035 13.9867 42.3635 14.2 41.3902 14.2C40.3102 14.2 39.4168 14.0133 38.7102 13.64C38.0035 13.2533 37.4568 12.7467 37.0702 12.12C36.6835 11.48 36.4435 10.7733 36.3502 10C36.2702 9.21333 36.3168 8.42 36.4902 7.62C36.7035 6.63333 37.0635 5.72667 37.5702 4.9C38.0902 4.07333 38.7102 3.36 39.4302 2.76C40.1635 2.14667 40.9502 1.67333 41.7902 1.34C42.6302 1.00667 43.4702 0.839999 44.3102 0.839999ZM58.998 12.44C58.358 13 57.638 13.4333 56.838 13.74C56.038 14.0467 55.178 14.2 54.258 14.2C53.2846 14.2 52.4313 14.0133 51.698 13.64C50.9646 13.2533 50.398 12.7067 49.998 12C49.598 11.2933 49.398 10.4467 49.398 9.46C49.398 8.44667 49.5446 7.50667 49.838 6.64C50.1313 5.77333 50.5246 4.99333 51.018 4.3C51.5246 3.60667 52.0713 3.01333 52.658 2.52C53.2846 2 53.9713 1.59333 54.718 1.3C55.478 0.993332 56.2646 0.839999 57.078 0.839999C58.598 0.839999 59.798 1.28 60.678 2.16C61.558 3.02667 61.998 4.2 61.998 5.68C61.998 6.66667 61.8446 7.59333 61.538 8.46C61.2446 9.32667 60.8646 10.1 60.398 10.78C59.9446 11.46 59.478 12.0133 58.998 12.44ZM56.638 1.72C56.158 1.72 55.6713 1.82 55.178 2.02C54.698 2.22 54.238 2.54667 53.798 3C53.4513 3.36 53.098 3.87333 52.738 4.54C52.378 5.19333 52.078 5.94 51.838 6.78C51.6113 7.62 51.498 8.48667 51.498 9.38C51.498 10.6733 51.8113 11.6533 52.438 12.32C53.0646 12.9867 53.8646 13.32 54.838 13.32C56.1313 13.32 57.2246 12.7267 58.118 11.54C58.4246 11.1133 58.718 10.56 58.998 9.88C59.2913 9.2 59.5246 8.46667 59.698 7.68C59.8713 6.88 59.958 6.08667 59.958 5.3C59.958 4.08667 59.6713 3.18667 59.098 2.6C58.538 2.01333 57.718 1.72 56.638 1.72ZM65.1661 5.1C65.3261 4.34 65.4594 3.62667 65.5661 2.96C65.6728 2.29333 65.7528 1.67333 65.8061 1.1L65.8661 1.04C65.8661 1.04 65.9328 1.05333 66.0661 1.08C66.1994 1.09333 66.3328 1.1 66.4661 1.1C66.5061 1.1 66.5994 1.09333 66.7461 1.08C66.8928 1.06667 66.9661 1.06 66.9661 1.06L71.3261 9.94C71.6061 10.5133 71.8128 10.82 71.9461 10.86C72.0928 10.9 72.1994 10.76 72.2661 10.44L73.2061 6.1C73.4461 4.95333 73.6728 3.97333 73.8861 3.16C74.0994 2.33333 74.3128 1.64667 74.5261 1.1L74.5861 1.04C74.5861 1.04 74.6394 1.05333 74.7461 1.08C74.8528 1.09333 75.0261 1.1 75.2661 1.1C75.4928 1.1 75.6661 1.09333 75.7861 1.08C75.9194 1.05333 75.9861 1.04 75.9861 1.04V1.1C75.7194 1.62 75.4261 2.29333 75.1061 3.12C74.7861 3.94667 74.5061 4.94 74.2661 6.1L72.6661 13.58C72.5728 13.9933 72.3861 14.2 72.1061 14.2C71.7594 14.2 71.5061 14.04 71.3461 13.72L66.8461 4.9C66.5928 4.40667 66.4528 4.18667 66.4261 4.24C66.3994 4.28 66.3194 4.60667 66.1861 5.22L65.3061 9.4C65.0928 10.36 64.8861 11.2333 64.6861 12.02C64.4994 12.7933 64.3128 13.4533 64.1261 14L64.0661 14.06C64.0661 14.06 64.0128 14.0467 63.9061 14.02C63.7994 14.0067 63.6261 14 63.3861 14C63.1594 14 62.9794 14.0067 62.8461 14.02C62.7261 14.0467 62.6661 14.06 62.6661 14.06V14C62.9328 13.48 63.1994 12.86 63.4661 12.14C63.7461 11.4067 64.0061 10.4933 64.2461 9.4L65.1661 5.1Z" fill="black"/>
</svg>
