<svg width="435" height="70" viewBox="0 0 435 70" fill="none" xmlns="http://www.w3.org/2000/svg">
<path d="M10.675 15.655C12.0983 15.655 13.3793 15.655 14.518 15.655C15.6567 15.6143 16.775 15.5737 17.873 15.533C19.0117 15.4923 20.2927 15.472 21.716 15.472C24.644 15.472 27.4093 15.96 30.012 16.936C32.6147 17.8713 34.892 19.2337 36.844 21.023C38.8367 22.8123 40.4023 24.9473 41.541 27.428C42.6797 29.868 43.249 32.5927 43.249 35.602C43.249 39.3433 42.5983 42.4747 41.297 44.996C39.9957 47.5173 38.308 49.5303 36.234 51.035C34.16 52.499 31.9437 53.5563 29.585 54.207C27.2263 54.817 24.9693 55.122 22.814 55.122C21.0247 55.122 19.52 55.1017 18.3 55.061C17.1207 55.061 15.9413 55.0407 14.762 55C13.6233 55 12.261 55 10.675 55C9.98367 55 9.23133 55 8.418 55C7.60467 55.0407 6.91333 55.0813 6.344 55.122C5.77467 55.1627 5.49 55.183 5.49 55.183L5.429 55C5.673 53.3327 5.856 51.462 5.978 49.388C6.1 47.2733 6.161 45.0773 6.161 42.8V27.855C6.161 23.1783 5.917 19.1117 5.429 15.655L5.551 15.472C5.551 15.472 5.83567 15.4923 6.405 15.533C6.97433 15.5737 7.64533 15.6143 8.418 15.655C9.23133 15.655 9.98367 15.655 10.675 15.655ZM14.945 48.839C14.945 49.815 15.3517 50.5673 16.165 51.096C17.019 51.6247 18.605 51.889 20.923 51.889C23.8103 51.889 26.169 51.523 27.999 50.791C29.829 50.0183 31.1913 48.5747 32.086 46.46C32.9807 44.3047 33.428 41.1733 33.428 37.066C33.428 34.7073 33.306 32.43 33.062 30.234C32.818 28.038 32.2487 26.086 31.354 24.378C30.4593 22.6293 29.0563 21.2467 27.145 20.23C25.2743 19.2133 22.692 18.705 19.398 18.705C16.4293 18.705 14.945 19.7217 14.945 21.755V48.839ZM61.0453 42.8C61.0453 43.044 61.0453 43.5117 61.0453 44.203C61.0859 44.8943 61.1063 45.667 61.1063 46.521C61.1469 47.375 61.1876 48.168 61.2283 48.9C61.3096 49.632 61.4113 50.181 61.5333 50.547C63.5666 50.547 65.6406 50.486 67.7553 50.364C69.8699 50.2013 71.8219 50.0387 73.6113 49.876C75.4006 49.7133 76.8443 49.571 77.9423 49.449C79.0403 49.2863 79.5893 49.205 79.5893 49.205L79.7113 49.449C79.7113 49.6117 79.6909 49.937 79.6503 50.425C79.6503 50.8723 79.6299 51.34 79.5893 51.828C79.5893 52.2753 79.5893 52.6007 79.5893 52.804C79.5893 53.0887 79.5893 53.4343 79.5893 53.841C79.6299 54.207 79.6706 54.5933 79.7113 55L79.5893 55.183C79.1013 55.1017 78.5319 55.0407 77.8813 55C77.2306 55 76.5799 55 75.9293 55H56.7753C56.0839 55 55.3316 55 54.5183 55C53.7049 55.0407 53.0136 55.0813 52.4443 55.122C51.8749 55.1627 51.5903 55.183 51.5903 55.183L51.5293 55C51.7733 53.3327 51.9563 51.462 52.0783 49.388C52.2003 47.2733 52.2613 45.0773 52.2613 42.8V27.855C52.2613 23.1783 52.0173 19.1117 51.5293 15.655L51.6513 15.472C51.6513 15.472 51.9359 15.4923 52.5053 15.533C53.0746 15.5737 53.7456 15.6143 54.5183 15.655C55.3316 15.655 56.0839 15.655 56.7753 15.655H75.3193C75.9699 15.655 76.6206 15.6347 77.2713 15.594C77.9219 15.5533 78.4913 15.5127 78.9793 15.472L79.1013 15.655C79.0199 16.5903 78.9793 17.302 78.9793 17.79C78.9793 18.0747 78.9793 18.5017 78.9793 19.071C79.0199 19.6403 79.0606 20.047 79.1013 20.291L78.9793 20.535C78.9793 20.535 78.4506 20.4943 77.3933 20.413C76.3766 20.3317 75.0143 20.2503 73.3063 20.169C71.5983 20.0877 69.7073 20.0063 67.6333 19.925C65.5999 19.8437 63.5666 19.803 61.5333 19.803C61.4113 20.169 61.3096 20.7383 61.2283 21.511C61.1876 22.2837 61.1469 23.1173 61.1063 24.012C61.1063 24.866 61.0859 25.659 61.0453 26.391C61.0453 27.123 61.0453 27.611 61.0453 27.855V32.308C63.4446 32.308 65.4983 32.2877 67.2063 32.247C68.9143 32.1657 70.4189 32.0843 71.7203 32.003C73.0623 31.881 74.3229 31.7793 75.5023 31.698L75.6853 31.881C75.6446 32.1657 75.6039 32.552 75.5633 33.04C75.5226 33.4873 75.5023 33.8533 75.5023 34.138C75.5023 34.4227 75.5226 34.809 75.5633 35.297C75.6039 35.785 75.6446 36.1713 75.6853 36.456L75.5023 36.639C74.1196 36.4763 72.4726 36.3543 70.5613 36.273C68.6906 36.1917 66.8809 36.1307 65.1323 36.09C63.3836 36.0493 62.0213 36.029 61.0453 36.029V42.8ZM104.828 44.081C105.885 41.6817 106.963 39.1807 108.061 36.578C109.2 33.9753 110.277 31.393 111.294 28.831C112.351 26.269 113.287 23.8493 114.1 21.572C114.913 19.2947 115.564 17.2613 116.052 15.472C116.418 15.5533 117.008 15.6143 117.821 15.655C118.675 15.655 119.265 15.655 119.59 15.655C119.915 15.655 120.383 15.655 120.993 15.655C121.644 15.6143 122.152 15.5533 122.518 15.472C119.427 22.2227 116.377 28.8717 113.368 35.419C110.399 41.9663 107.451 48.6357 104.523 55.427H100.314C99.1754 52.743 97.9757 49.8557 96.715 46.765C95.4544 43.6743 94.1734 40.543 92.872 37.371C91.6114 34.199 90.371 31.1897 89.151 28.343C87.9717 25.4557 86.894 22.8937 85.918 20.657C84.9827 18.4203 84.21 16.692 83.6 15.472C83.966 15.5127 84.576 15.5533 85.43 15.594C86.284 15.6347 87.138 15.655 87.992 15.655C88.846 15.655 89.4357 15.655 89.761 15.655C90.2897 15.655 91.0624 15.655 92.079 15.655C93.0957 15.6143 93.8684 15.5533 94.397 15.472C94.6817 16.4887 95.5967 19.4167 97.142 24.256C98.728 29.0953 101.29 35.7037 104.828 44.081ZM146.777 14.862C149.258 14.862 151.535 15.106 153.609 15.594C155.683 16.0413 157.351 16.4887 158.611 16.936C159.872 17.3833 160.502 17.607 160.502 17.607L160.624 17.79C160.258 19.2947 159.994 20.6163 159.831 21.755C159.669 22.853 159.526 24.1747 159.404 25.72L157.574 25.781C156.314 23.2597 154.809 21.3687 153.06 20.108C151.352 18.8473 149.116 18.217 146.35 18.217C145.09 18.217 143.768 18.522 142.385 19.132C141.043 19.7013 139.783 20.6367 138.603 21.938C137.424 23.2393 136.468 24.9677 135.736 27.123C135.004 29.2377 134.638 31.8403 134.638 34.931C134.638 38.3877 135.147 41.397 136.163 43.959C137.18 46.4803 138.563 48.4527 140.311 49.876C142.101 51.2587 144.093 51.95 146.289 51.95C148.201 51.95 149.888 51.8077 151.352 51.523C152.816 51.1977 154.219 50.6487 155.561 49.876C156.944 49.1033 158.388 47.985 159.892 46.521L161.356 48.595C158.794 51.2383 156.049 53.0683 153.121 54.085C150.234 55.1017 147.428 55.61 144.703 55.61C142.101 55.61 139.823 55.3253 137.871 54.756C135.919 54.1867 134.028 53.292 132.198 52.072C129.799 50.4453 127.949 48.1883 126.647 45.301C125.346 42.373 124.695 39.3027 124.695 36.09C124.695 32.7553 125.346 29.6037 126.647 26.635C127.989 23.6663 129.86 21.2467 132.259 19.376C134.171 17.8713 136.367 16.753 138.847 16.021C141.369 15.2483 144.012 14.862 146.777 14.862ZM210.16 34.931C210.16 38.9977 209.285 42.5967 207.537 45.728C205.829 48.8187 203.368 51.2383 200.156 52.987C196.984 54.7357 193.222 55.61 188.871 55.61C184.845 55.61 181.246 54.7763 178.074 53.109C174.902 51.4417 172.38 49.144 170.51 46.216C168.68 43.288 167.765 39.9127 167.765 36.09C167.765 33.0807 168.273 30.295 169.29 27.733C170.306 25.171 171.75 22.9343 173.621 21.023C175.491 19.071 177.708 17.5663 180.27 16.509C182.872 15.411 185.719 14.862 188.81 14.862C193.161 14.862 196.923 15.6957 200.095 17.363C203.307 19.0303 205.788 21.3687 207.537 24.378C209.285 27.3873 210.16 30.905 210.16 34.931ZM188.017 18.217C186.065 18.217 184.296 18.7253 182.71 19.742C181.164 20.7587 179.924 22.5073 178.989 24.988C178.053 27.428 177.586 30.783 177.586 35.053C177.586 40.909 178.745 45.24 181.063 48.046C183.421 50.852 186.431 52.255 190.091 52.255C193.588 52.255 196.17 50.9333 197.838 48.29C199.505 45.606 200.339 41.5393 200.339 36.09C200.339 29.746 199.363 25.1913 197.411 22.426C195.459 19.62 192.327 18.217 188.017 18.217ZM219.482 27.855C219.564 25.5777 219.543 23.4223 219.421 21.389C219.299 19.315 219.116 17.4037 218.872 15.655L218.994 15.472C218.994 15.472 219.421 15.5127 220.275 15.594C221.17 15.6347 221.963 15.655 222.654 15.655C223.224 15.655 223.854 15.6347 224.545 15.594C225.277 15.5127 225.643 15.472 225.643 15.472C227.921 18.4813 230.381 21.572 233.024 24.744C235.668 27.916 238.352 31.0473 241.076 34.138C243.801 37.2287 246.424 40.116 248.945 42.8H249.128V27.855C249.047 25.5777 248.945 23.4223 248.823 21.389C248.742 19.315 248.579 17.4037 248.335 15.655L248.457 15.472C248.457 15.472 248.783 15.5127 249.433 15.594C250.084 15.6347 250.775 15.655 251.507 15.655C252.199 15.655 252.87 15.6347 253.52 15.594C254.171 15.5127 254.496 15.472 254.496 15.472L254.618 15.655C254.374 17.2817 254.212 19.1523 254.13 21.267C254.049 23.3817 254.008 25.5777 254.008 27.855L253.642 55.183C252.666 55.061 251.69 55 250.714 55C250.226 55 249.657 55.0203 249.006 55.061C248.356 55.1017 247.786 55.1423 247.298 55.183C243.801 50.669 240.039 46.033 236.013 41.275C232.028 36.517 228.043 31.8403 224.057 27.245H223.691L223.447 42.8C223.407 45.1587 223.386 47.3547 223.386 49.388C223.427 51.3807 223.569 53.2513 223.813 55L223.691 55.183C223.691 55.183 223.427 55.1423 222.898 55.061C222.37 55.0203 221.739 55 221.007 55C220.316 55 219.686 55.0203 219.116 55.061C218.547 55.1423 218.262 55.183 218.262 55.183L218.201 55C218.445 53.3733 218.649 51.523 218.811 49.449C218.974 47.375 219.096 45.1587 219.177 42.8L219.482 27.855ZM265.113 27.855C265.194 25.5777 265.174 23.4223 265.052 21.389C264.93 19.315 264.747 17.4037 264.503 15.655L264.625 15.472C264.625 15.472 265.052 15.5127 265.906 15.594C266.801 15.6347 267.594 15.655 268.285 15.655C268.854 15.655 269.485 15.6347 270.176 15.594C270.908 15.5127 271.274 15.472 271.274 15.472C273.551 18.4813 276.012 21.572 278.655 24.744C281.298 27.916 283.982 31.0473 286.707 34.138C289.432 37.2287 292.055 40.116 294.576 42.8H294.759V27.855C294.678 25.5777 294.576 23.4223 294.454 21.389C294.373 19.315 294.21 17.4037 293.966 15.655L294.088 15.472C294.088 15.472 294.413 15.5127 295.064 15.594C295.715 15.6347 296.406 15.655 297.138 15.655C297.829 15.655 298.5 15.6347 299.151 15.594C299.802 15.5127 300.127 15.472 300.127 15.472L300.249 15.655C300.005 17.2817 299.842 19.1523 299.761 21.267C299.68 23.3817 299.639 25.5777 299.639 27.855L299.273 55.183C298.297 55.061 297.321 55 296.345 55C295.857 55 295.288 55.0203 294.637 55.061C293.986 55.1017 293.417 55.1423 292.929 55.183C289.432 50.669 285.67 46.033 281.644 41.275C277.659 36.517 273.673 31.8403 269.688 27.245H269.322L269.078 42.8C269.037 45.1587 269.017 47.3547 269.017 49.388C269.058 51.3807 269.2 53.2513 269.444 55L269.322 55.183C269.322 55.183 269.058 55.1423 268.529 55.061C268 55.0203 267.37 55 266.638 55C265.947 55 265.316 55.0203 264.747 55.061C264.178 55.1423 263.893 55.183 263.893 55.183L263.832 55C264.076 53.3733 264.279 51.523 264.442 49.449C264.605 47.375 264.727 45.1587 264.808 42.8L265.113 27.855ZM319.223 42.8C319.223 43.044 319.223 43.5117 319.223 44.203C319.264 44.8943 319.284 45.667 319.284 46.521C319.325 47.375 319.365 48.168 319.406 48.9C319.487 49.632 319.589 50.181 319.711 50.547C321.744 50.547 323.818 50.486 325.933 50.364C328.048 50.2013 330 50.0387 331.789 49.876C333.578 49.7133 335.022 49.571 336.12 49.449C337.218 49.2863 337.767 49.205 337.767 49.205L337.889 49.449C337.889 49.6117 337.869 49.937 337.828 50.425C337.828 50.8723 337.808 51.34 337.767 51.828C337.767 52.2753 337.767 52.6007 337.767 52.804C337.767 53.0887 337.767 53.4343 337.767 53.841C337.808 54.207 337.848 54.5933 337.889 55L337.767 55.183C337.279 55.1017 336.71 55.0407 336.059 55C335.408 55 334.758 55 334.107 55H314.953C314.262 55 313.509 55 312.696 55C311.883 55.0407 311.191 55.0813 310.622 55.122C310.053 55.1627 309.768 55.183 309.768 55.183L309.707 55C309.951 53.3327 310.134 51.462 310.256 49.388C310.378 47.2733 310.439 45.0773 310.439 42.8V27.855C310.439 23.1783 310.195 19.1117 309.707 15.655L309.829 15.472C309.829 15.472 310.114 15.4923 310.683 15.533C311.252 15.5737 311.923 15.6143 312.696 15.655C313.509 15.655 314.262 15.655 314.953 15.655H333.497C334.148 15.655 334.798 15.6347 335.449 15.594C336.1 15.5533 336.669 15.5127 337.157 15.472L337.279 15.655C337.198 16.5903 337.157 17.302 337.157 17.79C337.157 18.0747 337.157 18.5017 337.157 19.071C337.198 19.6403 337.238 20.047 337.279 20.291L337.157 20.535C337.157 20.535 336.628 20.4943 335.571 20.413C334.554 20.3317 333.192 20.2503 331.484 20.169C329.776 20.0877 327.885 20.0063 325.811 19.925C323.778 19.8437 321.744 19.803 319.711 19.803C319.589 20.169 319.487 20.7383 319.406 21.511C319.365 22.2837 319.325 23.1173 319.284 24.012C319.284 24.866 319.264 25.659 319.223 26.391C319.223 27.123 319.223 27.611 319.223 27.855V32.308C321.622 32.308 323.676 32.2877 325.384 32.247C327.092 32.1657 328.597 32.0843 329.898 32.003C331.24 31.881 332.501 31.7793 333.68 31.698L333.863 31.881C333.822 32.1657 333.782 32.552 333.741 33.04C333.7 33.4873 333.68 33.8533 333.68 34.138C333.68 34.4227 333.7 34.809 333.741 35.297C333.782 35.785 333.822 36.1713 333.863 36.456L333.68 36.639C332.297 36.4763 330.65 36.3543 328.739 36.273C326.868 36.1917 325.059 36.1307 323.31 36.09C321.561 36.0493 320.199 36.029 319.223 36.029V42.8ZM366.056 14.862C368.536 14.862 370.814 15.106 372.888 15.594C374.962 16.0413 376.629 16.4887 377.89 16.936C379.15 17.3833 379.781 17.607 379.781 17.607L379.903 17.79C379.537 19.2947 379.272 20.6163 379.11 21.755C378.947 22.853 378.805 24.1747 378.683 25.72L376.853 25.781C375.592 23.2597 374.087 21.3687 372.339 20.108C370.631 18.8473 368.394 18.217 365.629 18.217C364.368 18.217 363.046 18.522 361.664 19.132C360.322 19.7013 359.061 20.6367 357.882 21.938C356.702 23.2393 355.747 24.9677 355.015 27.123C354.283 29.2377 353.917 31.8403 353.917 34.931C353.917 38.3877 354.425 41.397 355.442 43.959C356.458 46.4803 357.841 48.4527 359.59 49.876C361.379 51.2587 363.372 51.95 365.568 51.95C367.479 51.95 369.167 51.8077 370.631 51.523C372.095 51.1977 373.498 50.6487 374.84 49.876C376.222 49.1033 377.666 47.985 379.171 46.521L380.635 48.595C378.073 51.2383 375.328 53.0683 372.4 54.085C369.512 55.1017 366.706 55.61 363.982 55.61C361.379 55.61 359.102 55.3253 357.15 54.756C355.198 54.1867 353.307 53.292 351.477 52.072C349.077 50.4453 347.227 48.1883 345.926 45.301C344.624 42.373 343.974 39.3027 343.974 36.09C343.974 32.7553 344.624 29.6037 345.926 26.635C347.268 23.6663 349.138 21.2467 351.538 19.376C353.449 17.8713 355.645 16.753 358.126 16.021C360.647 15.2483 363.29 14.862 366.056 14.862ZM397.84 28.404C397.84 28.16 397.82 27.6923 397.779 27.001C397.779 26.269 397.759 25.476 397.718 24.622C397.718 23.7273 397.677 22.8937 397.596 22.121C397.555 21.3483 397.474 20.779 397.352 20.413C393.285 20.413 390.195 20.6367 388.08 21.084C385.965 21.5313 384.908 21.755 384.908 21.755L384.786 21.511C384.827 21.1857 384.847 20.6773 384.847 19.986C384.888 19.254 384.888 18.5017 384.847 17.729C384.847 16.9157 384.827 16.2243 384.786 15.655L384.908 15.472C385.396 15.5127 385.965 15.5533 386.616 15.594C387.267 15.6347 387.917 15.655 388.568 15.655H415.896C416.547 15.655 417.197 15.6347 417.848 15.594C418.499 15.5533 419.068 15.5127 419.556 15.472L419.678 15.655C419.637 16.2243 419.597 16.9157 419.556 17.729C419.556 18.5017 419.556 19.254 419.556 19.986C419.597 20.6773 419.637 21.1857 419.678 21.511L419.556 21.755C419.556 21.755 418.499 21.5313 416.384 21.084C414.31 20.6367 411.219 20.413 407.112 20.413C406.99 20.779 406.888 21.3483 406.807 22.121C406.766 22.8937 406.726 23.7273 406.685 24.622C406.685 25.476 406.665 26.269 406.624 27.001C406.624 27.6923 406.624 28.16 406.624 28.404V42.8C406.624 45.0773 406.665 47.253 406.746 49.327C406.827 51.3603 406.99 53.2513 407.234 55L407.112 55.183C407.112 55.183 406.848 55.1627 406.319 55.122C405.79 55.0813 405.14 55.0407 404.367 55C403.635 55 402.923 55 402.232 55C401.541 55 400.809 55 400.036 55C399.263 55.0407 398.613 55.0813 398.084 55.122C397.555 55.1627 397.291 55.183 397.291 55.183L397.23 55C397.474 53.3327 397.637 51.462 397.718 49.388C397.799 47.2733 397.84 45.0773 397.84 42.8V28.404Z" fill="black"/>
</svg>
